<svg id="visual" viewBox="0 0 900 600" width="900" height="600" xmlns="http://www.w3.org/2000/svg" xmlns:xlink="http://www.w3.org/1999/xlink" version="1.1"><g transform="translate(453.54723160196863 320.3551086461609)"><path d="M96.6 -132.3C129 -88 161.5 -61.1 188.1 -17.3C214.8 26.5 235.6 87.3 217.8 132.9C200 178.5 143.6 209.1 89.7 215.1C35.8 221.1 -15.6 202.7 -68 184.6C-120.3 166.5 -173.6 148.7 -202.7 110.9C-231.7 73.2 -236.5 15.3 -227.3 -40.6C-218.1 -96.5 -194.8 -150.5 -154.6 -193.4C-114.4 -236.4 -57.2 -268.2 -12.5 -253.2C32.1 -238.3 64.3 -176.6 96.6 -132.3" fill="#16C79A"></path></g></svg>